<?xml version="1.0" encoding="utf-8"?>
<!-- Generator: Adobe Illustrator 19.0.0, SVG Export Plug-In . SVG Version: 6.00 Build 0)  -->
<svg version="1.1" id="layer" xmlns="http://www.w3.org/2000/svg" xmlns:xlink="http://www.w3.org/1999/xlink" x="0px" y="0px"
	 viewBox="-153 -46 652 652" style="enable-background:new -153 -46 652 652;" xml:space="preserve">
<style type="text/css">
	.st0{fill:#C34986;}
	.st1{fill:#648D9D;}
</style>
<path id="XMLID_1_" d="M175,293.4c-0.2-0.5-0.4-1-0.6-1.5c-3.9-12-7.8-24-11.7-36c-0.5-1.4-1-1.9-2.6-1.9c-6.2,0.1-12.5,0.1-18.7,0
	c-1.4,0-2,0.4-2.4,1.8c-2.2,7.3-4.5,14.6-6.8,21.9c-1.5,4.7-2.9,9.4-4.4,14.1c-0.7-0.3-0.6-0.8-0.7-1.1c-3.1-11.6-6.2-23.2-9.2-34.8
	c-0.4-1.5-1-1.8-2.4-1.8c-7.4,0.1-14.8,0.1-22.3,0c-2,0-2.6,0.2-1.8,2.4c1.4,4.1,2.6,8.4,3.9,12.5c-20.1-26.6-66.2-21.3-76.9,10.9
	c-0.7-11.6-4-21.6-15.8-25.9c-13.4-4.9-24.7-1.2-34.1,10.2v-2.8c0-10.9,0-21.9,0-32.8c0-1.1,0.2-2.1-1.6-1.9
	c-7.8,0.9-15.7,1.7-23.5,2.4c-1.8,0.2-2.4,0.8-2.4,2.7c0.1,21.4,0.1,42.8,0.1,64.2c0,0.4,0,0.8,0,1.2c0,0.4,0.1,0.9-0.4,1.2
	c-1.8-6.3-6.3-10.2-11.7-13c-4.5-2.3-9.3-3.9-14.2-5.3c-3.7-1.1-7.4-2-10.8-3.8c-1.6-0.8-3-1.9-2.7-3.9c0.3-2.1,1.9-2.9,3.8-3.3
	c2-0.4,4-0.3,6.1,0c6.2,0.9,12.1,3.1,17.6,6.1c1.7,0.9,2.3,0.6,3.1-1c2.3-4.5,4.7-9,7.3-13.3c1-1.7,0.5-2.3-0.9-3.2
	c-9.8-5.5-20.4-8-31.6-7.8c-5.9,0.1-11.6,1.2-16.9,4.1c-9,4.9-13,12.5-12.8,22.7c0.2,9.6,5.5,15.5,13.8,19.4c4,1.9,8.3,3.1,12.6,4.3
	c3.9,1.1,7.9,2,11.5,3.8c1.6,0.8,2.6,2,2.4,3.9c-0.2,2-1.7,3-3.4,3.4c-1.8,0.4-3.7,0.5-5.6,0.3c-8.4-0.6-15.9-3.5-23-7.9
	c-1.3-0.8-1.8-0.8-2.6,0.6c-2.7,4.5-5.5,9-8.4,13.5c-0.7,1.1-0.6,1.6,0.5,2.3c14.3,9.4,29.9,12.8,46.6,9.4c8.2-1.6,14.9-5.9,18.5-14
	c0.6-1.2,0.9-2.6,1.4-3.8c0.3,5.7,0.4,11.5,0.3,17.1c-0.1,2.2,0.6,2.6,2.6,2.5c7.5-0.1,15-0.1,22.5,0c2,0,2.4-0.5,2.4-2.5
	c-0.1-13.1,0-26.2,0-39.4c0-2.7,0.3-5.3,1.6-7.7c2.1-4,6.2-6.1,11.2-5.6c4.5,0.5,7.4,3,8.8,7.2c0.7,2.1,0.9,4.3,0.9,6.5
	c0,13.1,0,26.2,0,39.4c0,1.6,0.3,2.1,2,2.1c7.7-0.1,15.5-0.1,23.2,0c1.7,0,2.1-0.5,2-2.1c-0.1-5.2,0-10.5,0-15.7v-7.8
	c7.6,19.6,25.9,28.7,44.4,27.4c10.6-0.7,20-4.6,27.7-12.1c7.7-7.5,11.7-16.8,12.2-27.6c0.3,0.4,0.5,0.7,0.6,1.1
	c3.6,11.6,7.2,23.2,10.7,34.8c0.5,1.5,1.1,1.9,2.6,1.9c6.4-0.1,12.8-0.1,19.2,0c1.6,0,2.3-0.4,2.7-2c2.1-6.8,4.3-13.5,6.5-20.2
	c1.9-5.8,3.8-11.7,5.8-17.9c0.4,1.1,0.6,1.8,0.8,2.4c3.9,12.3,7.8,24.6,11.7,36.9c1.2-0.3,1.3-1.3,1.5-2.2
	c3.4-10.9,6.8-21.7,10.1-32.6C175.1,295.1,175.6,294.3,175,293.4 M75.5,297.1c-1.4,6.3-5.2,10.7-11.6,12.5
	c-10.8,2.9-20.7-5.3-20.7-18.8c0.2-5.3,2.6-11.1,9.2-14.3c6-2.8,12-2.2,17.1,2C75.3,283.4,77.1,289.9,75.5,297.1 M443.4,294.5
	c-1.1-1.3-1.1-2.1,0-3.4c9.7-11.7,19.3-23.4,28.8-35.1c0.5-0.5,1.2-1,1.1-2h-2.3c-9.8,0-19.5,0.1-29.3,0c-2.1,0-3.4,0.6-4.7,2.2
	c-4.1,5.2-8.3,10.3-12.6,15.6c-4.5-5.6-8.9-10.9-13.3-16.4c-0.6-0.8-1.2-1.4-2.4-1.4c-14.2,0-28.4,0.1-42.6,0
	c-1.4,0-1.6,0.6-1.6,1.8c0.1,2.3,0,4.6,0,6.8c-0.2,0.1-0.5,0.2-0.7,0.4c-0.5-0.6-0.8-1.3-1.4-1.9c-10.9-11.5-27.2-11.2-38-4.5
	c-10.9,6.7-15.8,17-17.5,29.3c-0.5,3.5-0.4,7-0.6,10.5c-0.2-0.2-0.3-0.4-0.4-0.6c-4.1-13.2-8.2-26.5-12.2-39.7c-0.4-1.4-0.9-2-2.5-2
	c-6.6,0.1-13.1,0.1-19.7,0c-1.5,0-2,0.5-2.4,1.8c-1.4,4.7-2.9,9.4-4.5,14c-2.6,7.9-5.1,15.8-7.9,24.4c-4.3-13.6-8.3-26.6-12.4-39.6
	c-1.3,0.2-1.4,1.4-1.7,2.2c-3.3,10.6-6.7,21.2-9.9,31.8c-0.2,0.8-0.7,1.6-0.1,2.5c0.2,0.4,0.4,0.9,0.5,1.3
	c3.9,12.3,7.8,24.6,11.6,37c0.4,1.3,0.8,1.9,2.3,1.9c6.3-0.1,12.7-0.1,19,0c1.4,0,1.9-0.5,2.3-1.7c1.8-6,3.7-12,5.6-18.1
	c1.9-6.1,3.8-12.2,5.9-18.8c0.8,3,1.4,5.4,2.1,7.8c2.5,9.6,5.1,19.3,7.6,28.9c0.2,0.8,0.1,1.9,1.6,1.9c8.4-0.1,16.8,0,25.5,0
	c-1.4-4.5-2.7-8.9-4-13.2c6.3,8.5,14.4,13.9,25,15c10.9,1.1,19.5-3.2,26.6-12c0,3.2,0.1,5.6,0,8c-0.1,1.8,0.4,2.2,2.2,2.2
	c13.9-0.1,27.8-0.1,41.7,0c1.5,0,2.4-0.5,3.3-1.6c4.2-5.3,8.4-10.4,12.8-15.8c4.4,5.4,8.6,10.6,12.9,15.9c0.9,1.1,1.8,1.5,3.2,1.5
	c10.3-0.1,20.6,0,30.9-0.1c0.6,0,1.2,0.3,1.7-0.4c-0.4-0.5-0.8-1.1-1.3-1.6C462.5,317.7,453,306.1,443.4,294.5 M366,294.2
	c-1,9.3-7.4,15.9-15.8,16.2c-9.6,0.3-17.3-7.6-17.2-17.9c0-9.6,7.1-17.4,15.8-17.7C359.1,274.4,367.1,283.5,366,294.2 M407.5,294.2
	c-6.3,6.7-12.6,13.4-19.1,20.4v-43.1c6.5,7,12.8,13.7,19.1,20.4C408.4,292.7,408.4,293.2,407.5,294.2"/>
<polygon id="XMLID_6_" class="st0" points="213.8,253.7 187.1,253.7 163.2,331.5 189.8,331.6 "/>
<polygon id="XMLID_5_" class="st1" points="244.6,253.7 217.9,253.7 194,331.5 220.6,331.6 "/>
</svg>
